<?xml version="1.0" encoding="UTF-8"?>
<svg id="Layer_1" data-name="Layer 1" xmlns="http://www.w3.org/2000/svg" viewBox="0 0 166.14 154">
  <defs>
    <style>
      .cls-1 {
        fill: #ea683c;
      }

      .cls-2 {
        fill: #fdfcfc;
      }

      .cls-3 {
        fill: #343434;
      }
    </style>
  </defs>
  <polygon class="cls-3" points="81.07 0 81.07 154 .19 138.89 0 16.45 81.07 0"/>
  <path class="cls-1" d="M85.07,0l80.94,15.06.13,122.49-81.07,16.45V0ZM123.07,18c-.65.73,0,16.59,0,19.5,0,2.06-25.75,25.21-27.01,30.99l27.01,1.51v21l20-.99c-2,3.42-20,22.91-20,24.49v18c12.7,4.73,6.3-11.45,8.53-18.47,1.86-5.85,21.73-23.63,26.46-29.55l-2.49-.48h-25.5l.56-20.06-19.56-1.95c-1.01-1.07,19.22-19.81,19.78-21.71.48-1.64.56-18.59.09-19.65-.85-1.92-7.59-2.94-7.87-2.63Z"/>
  <path class="cls-2" d="M123.07,18c.28-.31,7.02.72,7.87,2.63.47,1.06.4,18-.09,19.65-.56,1.9-20.79,20.63-19.78,21.71l19.56,1.95-.56,20.06h25.5l2.49.48c-4.73,5.92-24.6,23.7-26.46,29.55-2.23,7.02,4.17,23.2-8.53,18.47v-18c0-1.58,18-21.06,20-24.49l-20,.99v-21l-27.01-1.51c1.26-5.77,27.01-28.93,27.01-30.99,0-2.91-.65-18.77,0-19.5Z"/>
</svg>