<?xml version="1.0" encoding="UTF-8"?>
<svg id="Layer_2" data-name="Layer 2" xmlns="http://www.w3.org/2000/svg" viewBox="0 0 2270.14 1761.54">
  <defs>
    <style>
      .cls-1 {
        fill: #fff;
      }
    </style>
  </defs>
  <path class="cls-1" d="M815.83,0l-172.63,647.87h319.24L1132.71,0h349.98l-463.49,1761.54h-349.98l229.38-871.31h-318.65l-227.61,871.31H0L373.6,341.03c.4-1.62-.09-2.19-1.72-1.71-5.26,1.58-15.98,9.1-22.28,12.01-69.81,32.25-153.5,39.96-229.57,30.52-2.19-.27-4.98-.72-7.11-1.2-1.34-.3-2.28.83-1.59-1.54l59.05-219.39c33.17-1.15,66.71,2.19,99.6-2.68,92-13.6,154.86-77.19,195.29-157.04h350.57Z"/>
  <path class="cls-1" d="M2270.14,1757.99h-523.2l-101.09-353.49h-450.48l98.73-371.22h265.44l-137.97-486.29c43.95-170.69,91.62-340.51,135.27-511.27,2.68-10.47,6.14-21.38,6.24-32.18l82.22,1.15,624.84,1753.3Z"/>
</svg>