<?xml version="1.0" encoding="UTF-8"?>
<svg id="Layer_1" data-name="Layer 1" xmlns="http://www.w3.org/2000/svg" viewBox="0 0 485.28 485.38">
  <defs>
    <style>
      .cls-1 {
        fill: #118aa1;
      }
    </style>
  </defs>
  <path class="cls-1" d="M419.99,64.84c2.83,2.83,5.86,9.54,7.23,13.53,14.67,66.36,38.86,132.7,53.53,198.74,2.5,11.27,6.37,21.79,3.53,33.71l-176.67,174.57-18.49-.7c-66.55-22.09-136.88-33.65-203.5-55.14-15.32-4.94-23.07-6.38-28.57-22.53C34.12,339.7,23.26,263.56.15,195.7l-.15-21.13L176.67,0l18.49.7c67.52,23.69,144.32,33.81,211.31,56.91,4,1.38,10.7,4.4,13.53,7.23ZM407.56,77.28L185.62,16.72l-13.82,7.15L16.11,184.05l60.61,224.05,221.93,60.56,13.82-7.15,155.69-160.17-60.61-224.05Z"/>
</svg>