<?xml version="1.0" encoding="UTF-8"?>
<svg id="Layer_1" data-name="Layer 1" xmlns="http://www.w3.org/2000/svg" viewBox="0 0 639.62 373.06">
  <defs>
    <style>
      .cls-1 {
        fill: #c3c3c3;
      }

      .cls-2 {
        fill: #fff;
      }

      .cls-3 {
        fill: #c4c4c4;
      }

      .cls-4 {
        fill: #c2c2c2;
      }

      .cls-5 {
        fill: #bebebe;
      }
    </style>
  </defs>
  <g>
    <path class="cls-2" d="M584.42,112.13c21.44,22.21,39.82,47.52,55.2,74.3-50.69,90.97-141.64,157.55-243.8,178.84C238.68,398.01,78.79,325.53,0,187.07c-.31-1.71,13.78-23.4,15.98-26.64C146.9-31.66,422.5-55.57,584.42,112.13ZM180.8,176.75c0,.67-.04,1.33,0,2l22.31-.02,4.76,4.66c.37,1.21-.48,4.36-1.56,4.36h-25.5c.69,1.48-.14,2.21,0,4,2.64,34.26,18.25,69.03,44,92-2.8,3.11,2.33,2.14,2.97,3.08-1.34,3.97.5,8.02,4.98,8.48,1.28.13,1.66-.9,2.07-1.02,3.66-1.04-.78,5.12,1.93,7.01,2.33,1.63,11.51-.98,15.07,1.94l.22,4.88,1.75,2.01c3.62.12,5.99,1.89,7.51-2.38,4.65,2.85,10.5,4.81,15.73,6.28,8.29,2.33,24.01,5.57,32.3,5.17,1.53-.07,4.84-.52,5.48-1.96-6.52-4.47-3.57-14.09-4-21.49,4.94.46,2.73-8.49,3.05-8.89l4.03-1.73c-2.43-7.49-1.46-15.33-2.12-22.82-.16-1.83-1.81-3.34-1.92-5.1-.24-3.78,3.36-7.63-2.02-10.97v-1.48c4.82.28,5.21-4.18,5-8.01,2.82-.48,1.51.52,1.98,1.53.65,1.4,2.98,5.57,3.03,5.98.25,2.4-1.85,7.65-2.04,10.96-.25,4.23-.15,21.62,1.52,24.55,2.29,4.01,17.55.19,17.5,3.48-2.45,4.2-7.08,1.6-10.36,2.64-1.77.56-1.38,2.64-1.62,2.86-1.86,1.69-2.63-.14-3,3-.56,4.73-.7,18.97,0,23.5.14.94.4,2.06,1.46,2.24,61.41-5.65,108.4-48.62,121.25-108.54,1.22-5.69.98-11.66,2.29-17.21.04-.17,1.79-.38,1.77-2.24-.04-3.73-1.34-8.97-1.77-12.76-7.14-62.57-46.62-113.68-110.77-124.73-2.92-.5-13.07-2.71-14.09.37.37,7.71-1.01,16.84-.14,24.36.07.6-.23,1.29.07,1.9,5.93,1.47,13.78-1.44,13.93,7.09-5.99.7-15.97-2.86-17.05,5.45-.7,5.39,1.36,32.39-1.05,34.44-2.31-.53-13.97,2.4-9.89-2.89.23-.13,3.37-3.77,3.48-4.01,2.03-4.7-1.06-7.1-1.54-11.41-.23-2-.2-6.05.12-8.02.56-3.51,5.52-8.81-2.05-10.55l-34,7c-.6-1.4-4.32-9.55-4-9.99,12.15-4.82,24.92-7.99,38-9.01v-26c-28.75-.16-58.5,11.76-80.47,30.03-25.74,21.4-49.01,61.73-48.53,95.97ZM424.8,50.76c81.28,69.72,83.53,190.06,4.01,262.5-3.88,3.53-10.89,7.57-14.03,10.97-1.38,1.49-.79,1.22.51,2.49,76.26-22.14,143.12-72.6,185.54-139.51.29-2.68-5.39-10.1-7.22-12.78-32.32-47.24-82.08-88.17-134.14-111.86-10.6-4.82-23.28-10.62-34.68-11.81ZM195.8,56.75c-1.79-1.98-40.15,18.21-44.67,20.82-39.16,22.7-75.85,56.04-102.15,92.85-2.28,3.2-10.49,13.7-10.19,16.76.22,2.26,12.27,18.35,14.61,21.46,35.11,46.52,85.97,86.24,140.41,107.59,4.72,1.85,10.06,4.52,14.98,4.5l-24.97-24.52c-54.18-63.24-55.18-156.07-3-220.94,3.56-4.42,11.52-11.13,14.02-14.98.79-1.22,1.24-2.01.95-3.54Z"/>
    <path class="cls-2" d="M418.8,150.75c-3.67-2.08-5.54.59-8.99,1.04.66,5.51,2.63,10.82,3.99,15.96-1.39-.42-2.14.08-3-2-5.95-33.28-35.37-63.71-67.56-72.94-4.48-1.28-16.9-5.04-19.44-1.06-2.9,4.54-.13,24.5-.53,31.04,1.32,1.6,9.86.88,12.85,2.17,2.11.91,2.06,4.83,7.02,2.91l1.6,1.44c-3.22,5.77,4.67,3.48,8.39,5.6,3.09,1.76,1.3,4.78-.81,6.71-1.77-1.69-6.43-2.59-7.84-3.81-1.19-1.02-.48-3.31-2.29-3.95-2.11-.75-5.44.39-7.71-.13-.86-.2-.23-2.04-2.12-2.04-2.85-.01-6.24,1-9.56.07-.4.24,1.03,1.66,1,1.99-.81,9.37-1.22,14.41,0,24,.28,2.22-.58,4.79.5,7.01,1.2,2.54,4.84.85,6.78,2.92,2.11,2.25,1.26,8.44,6.71,6.06l1.02,6.02,28.33-1.16,1.59-1.47-.93-5.37c4.95-2.43,11.69,3.04,11.01,8l1.84-.86c2.15,6.02,3.34.5,6.67-.13,5.18-.98,21.47,1.38,24.5-.56.63-.4.73-1.81,1.2-2.13.4-.27,2.11.77,2.78-.84-.63-2.52-1.34-4.98-2-7.48,3.15.95,6.06,1.88,8.99,2.99v-1.99c.34,2.18,1.89,4.96,1,8h25c.43,3.79,1.74,9.03,1.77,12.76.02,1.86-1.73,2.07-1.77,2.24-8.05-2.39-16.88-.64-25,0-.31.02-1.54-1.19-2.4-.92-2.92.91-2.1,8.22,1.4,8.92-.6,4.4-.91,6.63-2,11l-3.34-2.3c-.8-2.26,4.29-6.5-1.14-7.7-1.57.32-6.49,12.06-2.93,12.87l7.42-1.87c-3.6,13.55-7.99,21.83-16,33l-5.7-5.89c-5.76-1.5-6.88,14.54.7,11.89-6.58,7.89-10.47,13.61-20,19-3.15,1.78-6.37,3.81-10,4.01l1,1.98c-5.3-.52-4.95,1.97-9,4.01,2.14-3.72-1.19-6.69-4.48-8-2.68,2.97-3.56,7.02-.52,10-6.15,2.58-13.29,4.67-20.96,6.53-2.56.62-6.54,1.65-9.04.47.24-.22-.16-2.3,1.62-2.86,3.28-1.04,7.91,1.56,10.36-2.64.05-3.29-15.21.53-17.5-3.48-1.67-2.93-1.77-20.32-1.52-24.55.19-3.31,2.29-8.57,2.04-10.96-.04-.41-2.38-4.58-3.03-5.98-.47-1.01.84-2.01-1.98-1.53.21,3.83-.17,8.29-5.01,8.01v1.48c5.39,3.34,1.79,7.19,2.03,10.97.11,1.76,1.76,3.27,1.92,5.1.67,7.49-.31,15.33,2.12,22.82l-4.03,1.73c-.31.4,1.9,9.35-3.05,8.89-.1-1.68.37-3.43-.44-5.05-1.05-1.49-3.18-.73-4.56-.95l4.99-4.49c-2.74-4.09-4.31,2.02-6.48,1.48l-3.01-4.98c-2.98,3.37-4.24,2.75-7.9,1.04l-2.6,3.94c-1.42-.35-3.7.47-5.37-.14-1.47-.53-1.36-2.44-1.79-2.75-.59-.43-2.59.98-4.11.7-2.97-.54-5.83-2.92-7.73-3.81l.7-.61c-.53-2.99.3-5.86-1.7-8.39.8.06,2.8-.66,4,0,.58.32-.59,9.01,8.26,6.77,2.05-.52,2.46-3.81,3.77,1.22,4.51-2.96,4.64-.9,7.51-.54,6.46.8,13.01,2.41,19.42.5.58-3.19-1.63-5.36-1.99-8.42-.48-4.1.83-22.19-.87-24.15-1.05-1.21-3.18-.98-3.83-1.66-.73-.76-.19-3.14-1.89-3.65-6.94,1.86-9.98-.13-16.13-1.84-1.51-.42-4.44.15-5.1-.39-.44-.36-1.8-6.49-3.11-7.37-3.98-2.66-3.42,2.19-6.03,1.53-1.23-5.31-5.09-6.24-.52-11.99,4.83,2.22,5.22,2.79,5.52,8,8.05-3.49,13.27,8.41,20.3,8.64,3.08.1,12.44-1.04,12.79-5.12.2-2.29-.79-4.44-.72-6.2.36-8.96,3.03-11.94-3.38-19.33,12.29-1.45,3.54,13.46,6.96,19.35l3.41.69c4.03-5.22-.94-15.98,3.58-20.58,1.09-1.11,3.1-2.65,4.04-.46-1.47,1.15-2.76,1.58-4.05,2.67.63,8.04-1.16,16.71,1.05,24.33.28.96-.32,2.72.92,3.55,7.69,1.81,13.95-1.74,18.59-7.54l1.5,1.99,1-3c5.14,3.41,2.13,5.38.56,8.92-.3.69.53,2,.44,2.06-2.08,1.25-10.04,1.46-12.31,2-1.07.25-.97,2.47-2.33,2.92-2.41.8-6.85-2.11-8.87,2.1-1.26,2.61-1.07,31.79.65,32.86,3.86.99,7.61-.54,11.25-.77,2.3-.15,3.98,2.79,5.17-1.12,6.32,2.79,12.23.69,14.43-5.96,26.24-11.18,50.88-40.9,56-69,3.01-1.37,5.76-8.59,4.88-11.34l-1.38-1.66h-34c-3.13,0-2.87,8.34-3.1,9.03-1.01,2.97-4.25,7.2-5.66,10.3-1.32,2.91-.64,8.52-5.74,10.67.26-1-.23-2.65.24-4.21.62-2.04,3.06-3.37,2.75-5.78l-5.99,1.99c.2-.78,2.01-5.6,2.23-5.83.91-.93,3.77-.52,4.59-2.84,1.21-3.44-.65-8.95,1.94-11.84-.03-1.16-6.15-3.29-7.31-3.42-5.08-.6-10.2,1.16-13.9.9-3.06-.21-4.97-3.51-9.55-1.45-3.09,1.39-.12,4.36-1.43,6.5-.86,1.4-3.76,1.38-4.34,2.21-1.88,2.69-.53,4.65-5.22,8.77-3.24-2.57,2.44-4.82,2.85-6.69.33-1.52-1.05-3.09-.7-4.61.39-1.71,7.31-8.92,6.78-11.1-2.57-2.37-5.81-4.24-7.95-7.09-3.76-5.01-1.7-7.08-10.56-8.45l1.58-20.55-5.51-9.49c-5.54,3.95.53,15.17.28,18.31-.22,2.75-3.45,7.65-6.78,4.67,1-.42,1.87-3.23,2.05-4.45.49-3.48,1.77-20.81.52-22.61-2.46-1.81-5.8-.52-8.83-1.17-3.38-.72-5.85-3.73-10.13-1.86l-1.6-3.9c1.77-.62,3.43,1.86,4.51,1.77s2.4-3.06,4.19-3.58c2.58-.75,6.68.29,9.3-1.2-4.07,5.29,7.59,2.36,9.89,2.89,2.41-2.06.35-29.05,1.05-34.44,1.08-8.32,11.05-4.76,17.05-5.45-.15-8.53-8-5.62-13.93-7.09-.3-.61,0-1.3-.07-1.9,4.86,1.45,10.06,1.43,15.03,2.47,36.75,7.62,68.45,35.98,79.97,71.53ZM422.81,180.76l-.5-4c-2.12,1.58-2.9,3.32-2.51,5.99,5.2-.68,6.02,2.68,7.14,6.87,7.21.73,20.16-1.39,18.87-10.86-7.96.24-15.52-1.14-23,2ZM376.8,184.75c.23-5.66-7.52-9.13-5.57-.92l5.57.92ZM386.81,181.76l.99,3.5c2.92-.45,8.74,3.36,10.53,3.16,1.3-.15,2.38-2.95,4.17-3.47,3.46-1.01,7.81,1.41,10.28-2.7-4.11-4.06-9.32.03-13.44.53s-8.34-.71-12.53-1.02Z"/>
    <path class="cls-2" d="M256.8,165.75c1.9.85,4.74,2.97,7,4l-1,7,26,1c.21,2.27,3.69,10.49,5.14,12.36,3.36,4.36,6.02,3.18,5.29,11.7l6.44,1.05c-.18,4.3,2.77,4.48,3.12,4.88,6.4,7.38,3.73,10.37,3.38,19.33-.07,1.76.91,3.91.72,6.2-.35,4.08-9.71,5.23-12.79,5.12-7.03-.23-12.25-12.13-20.3-8.64-.3-5.21-.69-5.77-5.52-8-4.57,5.75-.71,6.68.52,11.99,2.61.66,2.05-4.19,6.03-1.53,1.31.88,2.68,7.01,3.11,7.37.66.54,3.59-.03,5.1.39,6.14,1.71,9.18,3.7,16.13,1.84,1.71.51,1.16,2.89,1.89,3.65.65.67,2.77.45,3.83,1.66,1.7,1.95.39,20.04.87,24.15.36,3.06,2.57,5.23,1.99,8.42-6.41,1.91-12.95.3-19.42-.5-2.88-.36-3.01-2.42-7.51.54-1.31-5.03-1.71-1.75-3.77-1.22-8.85,2.25-7.67-6.45-8.26-6.77,10.22,4.36,23.88,6.75,35,7v-31c-28.06-1.25-50.07-20.99-58.3-47.2-1.07-3.42-.13-7.28-3.2-9.8h-29c-.64,0-1.44,1.6-1.53,2.49-.3,2.97,2.35,13.21,3.31,16.73,6.98,25.45,29.33,51.38,53.72,61.78-1.2-.66-3.2.06-4,0-1.99-.14-3.09-1.58-6.21.04-.36.19-4.78,4.12-3.79,4.96l4.42-.96c1.67,5.37,3.39,3.48,6.57,4.96,1.9.89,4.76,3.27,7.73,3.81,1.52.28,3.52-1.13,4.11-.7.43.31.32,2.22,1.79,2.75,1.67.61,3.95-.21,5.37.14,5.45,1.36,9.26,2.1,15,3,1.38.22,3.51-.55,4.56.95.81,1.62.34,3.37.44,5.05.42,7.41-2.52,17.02,4,21.49-.64,1.44-3.95,1.88-5.48,1.96-8.29.4-24.02-2.85-32.3-5.17-5.23-1.47-11.08-3.43-15.73-6.28-1.52,4.28-3.89,2.5-7.51,2.38l-1.75-2.01-.22-4.88c-3.56-2.92-12.74-.32-15.07-1.94-2.72-1.89,1.73-8.06-1.93-7.01-.41.12-.79,1.15-2.07,1.02-4.48-.46-6.31-4.51-4.98-8.48-.64-.94-5.77.02-2.97-3.08,16.87,15.05,41.63,27.12,63.97,31.53,6.87,1.36,14.04,2.15,21.03,2.47v-27c-33.73,0-61.53-16.3-82-42,4.89-2.3,1.82,1.1,4.41,4.09,3.74,4.32,8.01,1.05,7.45-3.93-6.32-2.47-9.98-17.54-13.86-3.16-6.3-8.56-7.88-10.84-12-21h7c-1.82-6.05-.34-13.53-2.1-19.38-.83-2.75-2.69-4.88-3.61-7.42-.99-2.75.05-6.9-2.81-9.19l-5.49,8.99c-.27-1.54-1.54-3.98-1.46-6.06l-1.04-.73c-.45.03-.76.79-1,.79h-16c-1.65,0-4.36-1.96-6.5,0-.14-1.79.69-2.52,0-4h25.5c1.08,0,1.93-3.15,1.56-4.36l-4.76-4.66-22.31.02c-.03-.66.02-1.33,0-2,5.48,1.19,20.92-1.6,25,0,.51.2,2.5,4.6,6,3-.43-4.45.69-13.11,7-12-.48,2.71-.51,6.17-1,9h32l2.5-11.04,4.5.04ZM251.03,190.51c.88.69,4.85,1.42,6.06,1.1,4.69-1.24,2.38-17.36-.77-17.61-7.56,2.43-4.23,3.65-4.76,7.98-.25,2.01-2.33,7.1-.53,8.53ZM280.67,178.89c-3.07-.59-4.4,2.32-7.42,2.81-2.85.46-6.15-.31-8.97.05-1.46.19-3.09.77-1.48,2,3.6.88,7.38-.94,10.54-1.03,1.8-.05,10.13,2.75,8.94-.94l-1.62-2.88ZM309.8,210.75c-11.78-2.05-17.12-10.44-22.5-20h-24.5c1.05,23.87,23.77,43.51,47,45v-25ZM244.43,255.82c-2.38.69-1.94,6.03-1.16,7.97,1.17,1.9,3.94-.56,5.87.04,1.75.54,1.98,4.32,4.15,3.91,3.44-2.45-1.58-2.51-2.32-4.66-1.41-4.11,1.45-6.98-6.54-7.26Z"/>
    <path class="cls-2" d="M309.8,122.75c-2.62,1.49-6.71.45-9.3,1.2-1.8.52-3.11,3.49-4.19,3.58s-2.74-2.4-4.51-1.77l1.6,3.9c4.27-1.87,6.75,1.13,10.13,1.86,3.03.65,6.37-.65,8.83,1.17,1.25,1.8-.02,19.13-.52,22.61-.17,1.21-1.05,4.03-2.05,4.45-.64.27-2.78-.26-3,0-.25.29.6,6.58-2.49,6.81-1.36.1-4.21-3.77-5.5-2.8l-4.01,3c3.11-3.57,4.83-4.24,8-7l7-2v-25l-15,3c-1.25-2.7-2.74-5.31-4-8-.94-7.03,16.96-5.69,18.57-7.93l.43-31.07c7.57,1.74,2.61,7.04,2.05,10.55-.32,1.98-.34,6.02-.12,8.02.49,4.31,3.57,6.71,1.54,11.41-.11.24-3.25,3.88-3.48,4.01Z"/>
    <path class="cls-2" d="M379.8,269.75c-15.09,13.85-36.28,18.77-56,22,.37-3.14,1.14-1.31,3-3,2.5,1.18,6.47.15,9.04-.47,7.67-1.86,14.82-3.95,20.96-6.53,1.64-.69,3.42-1.2,5-2,4.05-2.04,3.7-4.53,9-4.01l-1-1.98c3.63-.2,6.86-2.23,10-4.01Z"/>
    <path class="cls-2" d="M329.8,204.75c-1.16,1.01-2.16,1.34-3,2-.94-2.19-2.95-.65-4.04.46-4.52,4.6.45,15.36-3.58,20.58l-3.41-.69c-3.43-5.89,5.32-20.8-6.96-19.35-.35-.41-3.31-.58-3.12-4.88l-6.44-1.05c.73-8.53-1.93-7.35-5.29-11.7-1.45-1.87-4.93-10.09-5.14-12.36-.05-.58-.1-1.48,0-2,.54-2.8,4.08-6.79,6-9l4.01-3c1.29-.97,4.14,2.9,5.5,2.8,3.09-.22,2.24-6.51,2.49-6.81.22-.25,2.36.28,3,0,3.33,2.98,6.56-1.92,6.78-4.67.25-3.14-5.81-14.36-.28-18.31l5.51,9.49-1.58,20.55c8.86,1.37,6.79,3.44,10.56,8.45,2.14,2.84,5.37,4.71,7.95,7.09.53,2.17-6.39,9.39-6.78,11.1-.35,1.52,1.04,3.1.7,4.61-.41,1.87-6.1,4.12-2.85,6.69Z"/>
    <path class="cls-2" d="M218.8,148.75l4.09,2.64c-.8,5.55-3.12,10.88-4.09,16.36-6.32-1.11-7.44,7.56-7,12-3.5,1.59-5.48-2.8-6-3,.28-10.3,2.97-20.25,6.04-29.97.83-.6,5.5,1.47,6.96,1.97Z"/>
    <path class="cls-2" d="M323.8,91.75l.46,28.04c28.34,6.18,52.62,26.93,55.54,56.96h32c-.16-3.44-.4-7.65-1-11,.86,2.08,1.61,1.58,3,2,.66,2.5,1.38,4.97,2,7.48-.68,1.61-2.39.57-2.78.84-.47.33-.57,1.73-1.2,2.13-3.03,1.94-19.32-.42-24.5.56-3.34.63-4.52,6.15-6.67.13l-1.84.86c.68-4.96-6.06-10.43-11.01-8l.93,5.37-1.59,1.47-28.33,1.16-1.02-6.02c-5.45,2.38-4.6-3.81-6.71-6.06-1.94-2.06-5.58-.38-6.78-2.92-1.08-2.22-.22-4.8-.5-7.01,7.18,5.23,14.94,9.39,17,19h27c-3.02-20.93-22.38-42.07-44-43,.03-.33-1.4-1.75-1-1.99,3.32.93,6.71-.08,9.56-.07,1.89,0,1.25,1.84,2.12,2.04,2.27.53,5.6-.62,7.71.13,1.8.64,1.1,2.93,2.29,3.95,1.42,1.22,6.08,2.12,7.84,3.81,2.11-1.93,3.89-4.95.81-6.71-3.72-2.12-11.61.17-8.39-5.6l-1.6-1.44c-4.96,1.92-4.9-1.99-7.02-2.91-2.98-1.29-11.52-.57-12.85-2.17.4-6.55-2.37-26.5.53-31.04Z"/>
    <path class="cls-2" d="M329.8,204.75c4.7-4.12,3.34-6.09,5.22-8.77.58-.83,3.49-.81,4.34-2.21,1.31-2.13-1.66-5.1,1.43-6.5,4.58-2.06,6.49,1.24,9.55,1.45,3.7.26,8.83-1.5,13.9-.9,1.16.14,7.28,2.26,7.31,3.42-2.59,2.9-.72,8.41-1.94,11.84-.82,2.32-3.69,1.91-4.59,2.84-.23.23-2.04,5.05-2.23,5.83-.43,1.7-1.41,11.53-.99,12,2.72.19,3.44-1.88,3.99-4,5.1-2.15,4.42-7.76,5.74-10.67,1.41-3.09,4.65-7.33,5.66-10.3.24-.69-.02-9.03,3.1-9.03h34l1.38,1.66c.88,2.75-1.87,9.97-4.88,11.34.67-3.68.94-8.22,1-12h-30.5c-3.08,6.39-3.62,13.42-6.79,20.21-7.09,15.19-22.48,28.34-38.19,33.81-2.48.86-12.52,2.23-12.52,4.48v28l1.66,1.39c3.44,1.08,24.96-5.02,29.34-6.89-2.2,6.66-8.11,8.75-14.43,5.96-1.19,3.91-2.87.97-5.17,1.12-3.64.23-7.39,1.76-11.25.77-1.72-1.07-1.91-30.24-.65-32.86,2.03-4.21,6.46-1.3,8.87-2.1,1.36-.45,1.26-2.67,2.33-2.92,2.28-.54,10.23-.75,12.31-2,.09-.05-.74-1.37-.44-2.06,1.57-3.54,4.58-5.51-.56-8.92l-1,3-1.5-1.99c-4.64,5.8-10.9,9.35-18.59,7.54-1.25-.83-.65-2.59-.92-3.55,1.33,3,13.75-2.28,16.04-3.46,9.85-5.09,20.32-16.29,24.44-26.56,1.31-3.27,4.27-10.3,2.02-12.98h-24c-4.4,8.45-8.99,15.01-17.84,19.21l-.66,23.79c-2.21-7.63-.42-16.3-1.05-24.33,1.29-1.08,2.58-1.52,4.05-2.67.84-.66,1.84-.99,3-2Z"/>
    <path class="cls-2" d="M422.81,180.76c7.48-3.15,15.04-1.76,23-2,1.29,9.48-11.66,11.59-18.87,10.86-1.12-4.19-1.94-7.55-7.14-6.87-.39-2.67.39-4.41,2.51-5.99l.5,4Z"/>
    <path class="cls-2" d="M418.8,150.75c2.36,7.28,2.86,10.54,4,18v1.99c-2.94-1.11-5.85-2.05-9-2.99-1.36-5.15-3.33-10.45-3.99-15.96,3.45-.45,5.32-3.12,8.99-1.04Z"/>
    <path class="cls-2" d="M386.81,181.76c4.19.31,8.23,1.54,12.53,1.02s9.33-4.58,13.44-.53c-2.47,4.1-6.82,1.68-10.28,2.7-1.79.53-2.88,3.32-4.17,3.47-1.79.2-7.61-3.61-10.53-3.16l-.99-3.5Z"/>
    <path class="cls-2" d="M404.8,244.75c-1.97,2.75-3.15,3.78-5,6-7.58,2.65-6.46-13.39-.7-11.89l5.7,5.89Z"/>
    <path class="cls-2" d="M290.8,286.75l2.6-3.94c3.66,1.71,4.92,2.33,7.9-1.04l3.01,4.98c2.18.54,3.74-5.57,6.48-1.48l-4.99,4.49c-5.74-.9-9.55-1.64-15-3Z"/>
    <path class="cls-2" d="M270.8,271.75c2,2.53,1.17,5.4,1.7,8.39l-.7.61c-3.18-1.48-4.9.41-6.57-4.96l-4.42.96c-1-.84,3.43-4.78,3.79-4.96,3.12-1.61,4.21-.18,6.21-.04Z"/>
    <path class="cls-2" d="M420.8,211.75l-7.42,1.87c-3.56-.81,1.36-12.54,2.93-12.87,5.43,1.2.35,5.44,1.14,7.7l3.34,2.3c-.08.31.08.69,0,1Z"/>
    <path class="cls-2" d="M361.8,279.75c-1.58.8-3.36,1.31-5,2-3.04-2.98-2.16-7.03.52-10,3.3,1.31,6.62,4.28,4.48,8Z"/>
    <path class="cls-2" d="M362.8,211.75l5.99-1.99c.31,2.41-2.14,3.74-2.75,5.78-.47,1.57.02,3.22-.24,4.21-.56,2.12-1.27,4.18-3.99,4-.41-.46.57-10.29.99-12Z"/>
    <path class="cls-2" d="M423.8,191.75c.89,2.97-.72,5.91-1,8-3.5-.7-4.32-8.02-1.4-8.92.86-.27,2.09.95,2.4.92Z"/>
    <path class="cls-2" d="M376.8,184.75l-5.57-.92c-1.95-8.21,5.8-4.74,5.57.92Z"/>
    <path class="cls-2" d="M206.8,197.75l5.49-8.99c2.86,2.29,1.82,6.44,2.81,9.19.91,2.54,2.78,4.67,3.61,7.42,1.76,5.84.28,13.32,2.1,19.37h-7c-4.6-11.32-4.95-15.33-7-27Z"/>
    <path class="cls-2" d="M225.8,245.75c3.87-14.38,7.54.69,13.86,3.16.56,4.98-3.7,8.25-7.45,3.93-2.59-2.99.47-6.39-4.41-4.09-1.09-1.37-1.38-2.15-2-3Z"/>
    <path class="cls-2" d="M251.03,190.51c-1.8-1.43.28-6.51.53-8.53.53-4.33-2.8-5.55,4.76-7.98,3.15.24,5.46,16.37.77,17.61-1.21.32-5.18-.41-6.06-1.1Z"/>
    <path class="cls-2" d="M244.43,255.82c7.99.29,5.13,3.15,6.54,7.26.74,2.15,5.75,2.21,2.32,4.66-2.18.41-2.4-3.37-4.15-3.91-1.93-.6-4.7,1.86-5.87-.04-.78-1.94-1.22-7.29,1.16-7.97Z"/>
    <path class="cls-2" d="M280.67,178.89l1.62,2.88c1.19,3.68-7.14.89-8.94.94-3.17.09-6.94,1.91-10.54,1.03-1.62-1.23.01-1.81,1.48-2,2.82-.36,6.12.41,8.97-.05,3.02-.49,4.35-3.39,7.42-2.81Z"/>
  </g>
  <g>
    <path class="cls-1" d="M309.8,88.75l-.43,31.07c-1.61,2.24-19.51.9-18.57,7.93-4.96-10.63-10.41-21.21-15-32l34-7Z"/>
    <path class="cls-3" d="M256.8,165.75l-4.5-.04-2.5,11.04h-32c.49-2.83.52-6.29,1-9,.96-5.48,3.29-10.81,4.09-16.36l-4.09-2.64c11.63,4,26.11,11.69,38,17Z"/>
    <path class="cls-4" d="M294.8,135.75l15-3v25l-7,2c.56-.49,1.24-.79,1.87-1.16v-1.12c-3.07-7.33-6.53-14.52-9.87-21.72Z"/>
    <path class="cls-5" d="M288.8,175.75c-.1.52-.05,1.42,0,2l-26-1,1-7c8.16,3.71,15.78,7.29,25,6Z"/>
    <path class="cls-1" d="M354.8,271.75c-4.38,1.87-25.9,7.97-29.34,6.89l-1.66-1.39v-28c0-2.25,10.03-3.62,12.52-4.48,15.72-5.46,31.1-18.62,38.19-33.81,3.17-6.79,3.71-13.82,6.79-20.21h30.5c-.06,3.78-.33,8.32-1,12-5.12,28.1-29.76,57.82-56,69Z"/>
    <path class="cls-1" d="M410.8,165.75c.6,3.35.84,7.56,1,11h-32c-2.92-30.03-27.2-50.77-55.54-56.96l-.46-28.04c2.54-3.98,14.96-.22,19.44,1.06,32.19,9.23,61.61,39.66,67.56,72.94Z"/>
    <path class="cls-1" d="M323.8,133.75c21.62.93,40.98,22.07,44,43h-27c-2.06-9.61-9.82-13.77-17-19-1.22-9.59-.81-14.63,0-24Z"/>
    <path class="cls-1" d="M274.8,271.75c-24.39-10.4-46.74-36.33-53.72-61.78-.96-3.52-3.62-13.76-3.31-16.73.09-.89.89-2.49,1.53-2.49h29c3.07,2.52,2.12,6.38,3.2,9.8,8.24,26.2,30.24,45.95,58.3,47.2v31c-11.12-.25-24.78-2.64-35-7Z"/>
    <path class="cls-3" d="M309.8,210.75v25c-23.23-1.49-45.95-21.13-47-45h24.5c5.38,9.56,10.72,17.95,22.5,20Z"/>
    <path class="cls-3" d="M323.8,233.75l.66-23.79c8.85-4.2,13.44-10.76,17.84-19.21h24c2.26,2.69-.7,9.71-2.02,12.98-4.12,10.26-14.6,21.47-24.44,26.56-2.29,1.18-14.71,6.46-16.04,3.46Z"/>
  </g>
</svg>